<svg
   width="92.357147mm"
   height="59.083523mm"
   viewBox="0 0 92.357147 59.083523"
   version="1.1"
   id="svg1"
   sodipodi:docname="logo.svg"
   inkscape:version="1.4.2 (f4327f4, 2025-05-13)"
   xmlns:inkscape="http://www.inkscape.org/namespaces/inkscape"
   xmlns:sodipodi="http://sodipodi.sourceforge.net/DTD/sodipodi-0.dtd"
   xmlns="http://www.w3.org/2000/svg"
   xmlns:svg="http://www.w3.org/2000/svg">
  <sodipodi:namedview
     id="namedview1"
     pagecolor="#ffffff"
     bordercolor="#000000"
     borderopacity="0.25"
     inkscape:showpageshadow="2"
     inkscape:pageopacity="0.0"
     inkscape:pagecheckerboard="0"
     inkscape:deskcolor="#d1d1d1"
     inkscape:document-units="mm"
     inkscape:clip-to-page="false"
     inkscape:zoom="1.7307949"
     inkscape:cx="132.30915"
     inkscape:cy="97.354112"
     inkscape:window-width="1920"
     inkscape:window-height="991"
     inkscape:window-x="-9"
     inkscape:window-y="-9"
     inkscape:window-maximized="1"
     inkscape:current-layer="layer1">
    <inkscape:page
       x="0"
       y="0"
       width="92.357147"
       height="59.083523"
       id="page2"
       margin="0"
       bleed="0" />
  </sodipodi:namedview>
  <defs
     id="defs1">
    <clipPath
       clipPathUnits="userSpaceOnUse"
       id="clipPath2">
      <path
         d="M 0,841.89 H 595.276 V 0 H 0 Z"
         transform="translate(-273.88371,-640.73552)"
         id="path2" />
    </clipPath>
    <clipPath
       clipPathUnits="userSpaceOnUse"
       id="clipPath4">
      <path
         d="M 0,841.89 H 595.276 V 0 H 0 Z"
         transform="translate(-237.18001,-581.18531)"
         id="path4" />
    </clipPath>
    <clipPath
       clipPathUnits="userSpaceOnUse"
       id="clipPath6">
      <path
         d="M 0,841.89 H 595.276 V 0 H 0 Z"
         transform="translate(-308.57641,-556.03051)"
         id="path6" />
    </clipPath>
    <clipPath
       clipPathUnits="userSpaceOnUse"
       id="clipPath8">
      <path
         d="M 0,841.89 H 595.276 V 0 H 0 Z"
         transform="translate(-380.58401,-594.77002)"
         id="path8" />
    </clipPath>
    <clipPath
       clipPathUnits="userSpaceOnUse"
       id="clipPath10">
      <path
         d="M 0,841.89 H 595.276 V 0 H 0 Z"
         transform="translate(-366.83781,-597.01312)"
         id="path10" />
    </clipPath>
    <clipPath
       clipPathUnits="userSpaceOnUse"
       id="clipPath12">
      <path
         d="M 0,841.89 H 595.276 V 0 H 0 Z"
         transform="translate(-287.9071,-599.01031)"
         id="path12" />
    </clipPath>
    <clipPath
       clipPathUnits="userSpaceOnUse"
       id="clipPath14">
      <path
         d="M 0,841.89 H 595.276 V 0 H 0 Z"
         transform="translate(-395.76371,-523.02971)"
         id="path14" />
    </clipPath>
    <clipPath
       clipPathUnits="userSpaceOnUse"
       id="clipPath16">
      <path
         d="M 0,841.89 H 595.276 V 0 H 0 Z"
         transform="translate(-378.19781,-533.64971)"
         id="path16" />
    </clipPath>
    <clipPath
       clipPathUnits="userSpaceOnUse"
       id="clipPath18">
      <path
         d="M 0,841.89 H 595.276 V 0 H 0 Z"
         transform="translate(-382.08581,-529.75481)"
         id="path18" />
    </clipPath>
    <clipPath
       clipPathUnits="userSpaceOnUse"
       id="clipPath20">
      <path
         d="M 0,841.89 H 595.276 V 0 H 0 Z"
         transform="translate(-381.39881,-529.75822)"
         id="path20" />
    </clipPath>
    <clipPath
       clipPathUnits="userSpaceOnUse"
       id="clipPath22">
      <path
         d="M 0,841.89 H 595.276 V 0 H 0 Z"
         transform="translate(-229.30221,-475.78531)"
         id="path22" />
    </clipPath>
    <clipPath
       clipPathUnits="userSpaceOnUse"
       id="clipPath24">
      <path
         d="M 0,841.89 H 595.276 V 0 H 0 Z"
         transform="translate(-236.3989,-478.70181)"
         id="path24" />
    </clipPath>
    <clipPath
       clipPathUnits="userSpaceOnUse"
       id="clipPath26">
      <path
         d="M 0,841.89 H 595.276 V 0 H 0 Z"
         id="path26" />
    </clipPath>
    <clipPath
       clipPathUnits="userSpaceOnUse"
       id="clipPath28">
      <path
         d="M 0,841.89 H 595.276 V 0 H 0 Z"
         transform="translate(-245.09671,-478.70181)"
         id="path28" />
    </clipPath>
    <clipPath
       clipPathUnits="userSpaceOnUse"
       id="clipPath30">
      <path
         d="M 0,841.89 H 595.276 V 0 H 0 Z"
         transform="translate(-247.21,-480.36831)"
         id="path30" />
    </clipPath>
    <clipPath
       clipPathUnits="userSpaceOnUse"
       id="clipPath32">
      <path
         d="M 0,841.89 H 595.276 V 0 H 0 Z"
         transform="translate(-254.05621,-476.64911)"
         id="path32" />
    </clipPath>
    <clipPath
       clipPathUnits="userSpaceOnUse"
       id="clipPath34">
      <path
         d="M 0,841.89 H 595.276 V 0 H 0 Z"
         transform="translate(-256.3789,-480.94791)"
         id="path34" />
    </clipPath>
    <clipPath
       clipPathUnits="userSpaceOnUse"
       id="clipPath36">
      <path
         d="M 0,841.89 H 595.276 V 0 H 0 Z"
         transform="translate(-267.09721,-476.64911)"
         id="path36" />
    </clipPath>
    <clipPath
       clipPathUnits="userSpaceOnUse"
       id="clipPath38">
      <path
         d="M 0,841.89 H 595.276 V 0 H 0 Z"
         id="path38" />
    </clipPath>
    <clipPath
       clipPathUnits="userSpaceOnUse"
       id="clipPath40">
      <path
         d="M 0,841.89 H 595.276 V 0 H 0 Z"
         transform="translate(-280.3999,-479.14911)"
         id="path40" />
    </clipPath>
    <clipPath
       clipPathUnits="userSpaceOnUse"
       id="clipPath42">
      <path
         d="M 0,841.89 H 595.276 V 0 H 0 Z"
         transform="translate(-286.26121,-479.13891)"
         id="path42" />
    </clipPath>
    <clipPath
       clipPathUnits="userSpaceOnUse"
       id="clipPath44">
      <path
         d="M 0,841.89 H 595.276 V 0 H 0 Z"
         transform="translate(-288.56301,-475.60221)"
         id="path44" />
    </clipPath>
    <clipPath
       clipPathUnits="userSpaceOnUse"
       id="clipPath46">
      <path
         d="M 0,841.89 H 595.276 V 0 H 0 Z"
         transform="translate(-297.9307,-480.92741)"
         id="path46" />
    </clipPath>
    <clipPath
       clipPathUnits="userSpaceOnUse"
       id="clipPath48">
      <path
         d="M 0,841.89 H 595.276 V 0 H 0 Z"
         transform="translate(-306.23141,-476.56761)"
         id="path48" />
    </clipPath>
    <clipPath
       clipPathUnits="userSpaceOnUse"
       id="clipPath50">
      <path
         d="M 0,841.89 H 595.276 V 0 H 0 Z"
         transform="translate(-313.26371,-479.14911)"
         id="path50" />
    </clipPath>
    <clipPath
       clipPathUnits="userSpaceOnUse"
       id="clipPath52">
      <path
         d="M 0,841.89 H 595.276 V 0 H 0 Z"
         transform="translate(-317.64941,-480.92741)"
         id="path52" />
    </clipPath>
    <clipPath
       clipPathUnits="userSpaceOnUse"
       id="clipPath54">
      <path
         d="M 0,841.89 H 595.276 V 0 H 0 Z"
         transform="translate(-325.95021,-476.56761)"
         id="path54" />
    </clipPath>
    <clipPath
       clipPathUnits="userSpaceOnUse"
       id="clipPath56">
      <path
         d="M 0,841.89 H 595.276 V 0 H 0 Z"
         transform="translate(-332.52251,-476.56761)"
         id="path56" />
    </clipPath>
    <clipPath
       clipPathUnits="userSpaceOnUse"
       id="clipPath58">
      <path
         d="M 0,841.89 H 595.276 V 0 H 0 Z"
         transform="translate(-334.57321,-475.60221)"
         id="path58" />
    </clipPath>
    <clipPath
       clipPathUnits="userSpaceOnUse"
       id="clipPath60">
      <path
         d="M 0,841.89 H 595.276 V 0 H 0 Z"
         transform="translate(-150.52251,-496.54561)"
         id="path60" />
    </clipPath>
    <clipPath
       clipPathUnits="userSpaceOnUse"
       id="clipPath62">
      <path
         d="M 0,841.89 H 595.276 V 0 H 0 Z"
         id="path62" />
    </clipPath>
    <clipPath
       clipPathUnits="userSpaceOnUse"
       id="clipPath64">
      <path
         d="M 0,841.89 H 595.276 V 0 H 0 Z"
         transform="translate(-165.73101,-489.70481)"
         id="path64" />
    </clipPath>
    <clipPath
       clipPathUnits="userSpaceOnUse"
       id="clipPath66">
      <path
         d="M 0,841.89 H 595.276 V 0 H 0 Z"
         transform="translate(-173.1006,-489.58471)"
         id="path66" />
    </clipPath>
    <clipPath
       clipPathUnits="userSpaceOnUse"
       id="clipPath68">
      <path
         d="M 0,841.89 H 595.276 V 0 H 0 Z"
         transform="translate(-186.231,-492.02851)"
         id="path68" />
    </clipPath>
    <clipPath
       clipPathUnits="userSpaceOnUse"
       id="clipPath70">
      <path
         d="M 0,841.89 H 595.276 V 0 H 0 Z"
         transform="translate(-188.4561,-488.97381)"
         id="path70" />
    </clipPath>
    <clipPath
       clipPathUnits="userSpaceOnUse"
       id="clipPath72">
      <path
         d="M 0,841.89 H 595.276 V 0 H 0 Z"
         transform="translate(-198.2505,-489.70481)"
         id="path72" />
    </clipPath>
    <clipPath
       clipPathUnits="userSpaceOnUse"
       id="clipPath74">
      <path
         d="M 0,841.89 H 595.276 V 0 H 0 Z"
         transform="translate(-201.37401,-494.43961)"
         id="path74" />
    </clipPath>
    <clipPath
       clipPathUnits="userSpaceOnUse"
       id="clipPath76">
      <path
         d="M 0,841.89 H 595.276 V 0 H 0 Z"
         transform="translate(-210.40431,-492.02851)"
         id="path76" />
    </clipPath>
    <clipPath
       clipPathUnits="userSpaceOnUse"
       id="clipPath78">
      <path
         d="M 0,841.89 H 595.276 V 0 H 0 Z"
         transform="translate(-216.59421,-489.58471)"
         id="path78" />
    </clipPath>
    <clipPath
       clipPathUnits="userSpaceOnUse"
       id="clipPath80">
      <path
         d="M 0,841.89 H 595.276 V 0 H 0 Z"
         id="path80" />
    </clipPath>
    <clipPath
       clipPathUnits="userSpaceOnUse"
       id="clipPath82">
      <path
         d="M 0,841.89 H 595.276 V 0 H 0 Z"
         transform="translate(-225.97461,-494.43961)"
         id="path82" />
    </clipPath>
    <clipPath
       clipPathUnits="userSpaceOnUse"
       id="clipPath84">
      <path
         d="M 0,841.89 H 595.276 V 0 H 0 Z"
         transform="translate(-237.86871,-492.02851)"
         id="path84" />
    </clipPath>
    <clipPath
       clipPathUnits="userSpaceOnUse"
       id="clipPath86">
      <path
         d="M 0,841.89 H 595.276 V 0 H 0 Z"
         id="path86" />
    </clipPath>
    <clipPath
       clipPathUnits="userSpaceOnUse"
       id="clipPath88">
      <path
         d="M 0,841.89 H 595.276 V 0 H 0 Z"
         id="path88" />
    </clipPath>
    <clipPath
       clipPathUnits="userSpaceOnUse"
       id="clipPath90">
      <path
         d="M 0,841.89 H 595.276 V 0 H 0 Z"
         transform="translate(-248.9785,-489.82491)"
         id="path90" />
    </clipPath>
    <clipPath
       clipPathUnits="userSpaceOnUse"
       id="clipPath92">
      <path
         d="M 0,841.89 H 595.276 V 0 H 0 Z"
         transform="translate(-258.68361,-491.36301)"
         id="path92" />
    </clipPath>
    <clipPath
       clipPathUnits="userSpaceOnUse"
       id="clipPath94">
      <path
         d="M 0,841.89 H 595.276 V 0 H 0 Z"
         transform="translate(-266.2549,-492.49771)"
         id="path94" />
    </clipPath>
    <clipPath
       clipPathUnits="userSpaceOnUse"
       id="clipPath96">
      <path
         d="M 0,841.89 H 595.276 V 0 H 0 Z"
         transform="translate(-269.54691,-487.45721)"
         id="path96" />
    </clipPath>
    <clipPath
       clipPathUnits="userSpaceOnUse"
       id="clipPath98">
      <path
         d="M 0,841.89 H 595.276 V 0 H 0 Z"
         transform="translate(-276.67971,-489.58471)"
         id="path98" />
    </clipPath>
    <clipPath
       clipPathUnits="userSpaceOnUse"
       id="clipPath100">
      <path
         d="M 0,841.89 H 595.276 V 0 H 0 Z"
         transform="translate(-288.6646,-489.70481)"
         id="path100" />
    </clipPath>
    <clipPath
       clipPathUnits="userSpaceOnUse"
       id="clipPath102">
      <path
         d="M 0,841.89 H 595.276 V 0 H 0 Z"
         transform="translate(-291.76561,-494.43961)"
         id="path102" />
    </clipPath>
    <clipPath
       clipPathUnits="userSpaceOnUse"
       id="clipPath104">
      <path
         d="M 0,841.89 H 595.276 V 0 H 0 Z"
         transform="translate(-308.26561,-489.86831)"
         id="path104" />
    </clipPath>
    <clipPath
       clipPathUnits="userSpaceOnUse"
       id="clipPath106">
      <path
         d="M 0,841.89 H 595.276 V 0 H 0 Z"
         transform="translate(-315.32031,-489.82491)"
         id="path106" />
    </clipPath>
    <clipPath
       clipPathUnits="userSpaceOnUse"
       id="clipPath108">
      <path
         d="M 0,841.89 H 595.276 V 0 H 0 Z"
         transform="translate(-318.16311,-493.81811)"
         id="path108" />
    </clipPath>
    <clipPath
       clipPathUnits="userSpaceOnUse"
       id="clipPath110">
      <path
         d="M 0,841.89 H 595.276 V 0 H 0 Z"
         transform="translate(-326.04691,-492.02851)"
         id="path110" />
    </clipPath>
    <clipPath
       clipPathUnits="userSpaceOnUse"
       id="clipPath112">
      <path
         d="M 0,841.89 H 595.276 V 0 H 0 Z"
         id="path112" />
    </clipPath>
    <clipPath
       clipPathUnits="userSpaceOnUse"
       id="clipPath114">
      <path
         d="M 0,841.89 H 595.276 V 0 H 0 Z"
         id="path114" />
    </clipPath>
    <clipPath
       clipPathUnits="userSpaceOnUse"
       id="clipPath116">
      <path
         d="M 0,841.89 H 595.276 V 0 H 0 Z"
         transform="translate(-333.11331,-489.31221)"
         id="path116" />
    </clipPath>
    <clipPath
       clipPathUnits="userSpaceOnUse"
       id="clipPath118">
      <path
         d="M 0,841.89 H 595.276 V 0 H 0 Z"
         transform="translate(-344.33401,-492.02851)"
         id="path118" />
    </clipPath>
    <clipPath
       clipPathUnits="userSpaceOnUse"
       id="clipPath120">
      <path
         d="M 0,841.89 H 595.276 V 0 H 0 Z"
         transform="translate(-354.19731,-489.89031)"
         id="path120" />
    </clipPath>
    <clipPath
       clipPathUnits="userSpaceOnUse"
       id="clipPath122">
      <path
         d="M 0,841.89 H 595.276 V 0 H 0 Z"
         id="path122" />
    </clipPath>
    <clipPath
       clipPathUnits="userSpaceOnUse"
       id="clipPath124">
      <path
         d="M 0,841.89 H 595.276 V 0 H 0 Z"
         transform="translate(-366.69921,-492.78141)"
         id="path124" />
    </clipPath>
    <clipPath
       clipPathUnits="userSpaceOnUse"
       id="clipPath126">
      <path
         d="M 0,841.89 H 595.276 V 0 H 0 Z"
         transform="translate(-375.60741,-489.82491)"
         id="path126" />
    </clipPath>
    <clipPath
       clipPathUnits="userSpaceOnUse"
       id="clipPath128">
      <path
         d="M 0,841.89 H 595.276 V 0 H 0 Z"
         transform="translate(-378.61911,-489.31221)"
         id="path128" />
    </clipPath>
    <clipPath
       clipPathUnits="userSpaceOnUse"
       id="clipPath130">
      <path
         d="M 0,841.89 H 595.276 V 0 H 0 Z"
         transform="translate(-385.25781,-489.31221)"
         id="path130" />
    </clipPath>
    <clipPath
       clipPathUnits="userSpaceOnUse"
       id="clipPath132">
      <path
         d="M 0,841.89 H 595.276 V 0 H 0 Z"
         transform="translate(-396.47851,-492.02851)"
         id="path132" />
    </clipPath>
    <clipPath
       clipPathUnits="userSpaceOnUse"
       id="clipPath134">
      <path
         d="M 0,841.89 H 595.276 V 0 H 0 Z"
         id="path134" />
    </clipPath>
    <clipPath
       clipPathUnits="userSpaceOnUse"
       id="clipPath136">
      <path
         d="M 0,841.89 H 595.276 V 0 H 0 Z"
         id="path136" />
    </clipPath>
    <clipPath
       clipPathUnits="userSpaceOnUse"
       id="clipPath138">
      <path
         d="M 0,841.89 H 595.276 V 0 H 0 Z"
         transform="translate(-406.98051,-489.70481)"
         id="path138" />
    </clipPath>
    <clipPath
       clipPathUnits="userSpaceOnUse"
       id="clipPath140">
      <path
         d="M 0,841.89 H 595.276 V 0 H 0 Z"
         transform="translate(-168.7303,-508.29322)"
         id="path140" />
    </clipPath>
    <clipPath
       clipPathUnits="userSpaceOnUse"
       id="clipPath142">
      <path
         d="M 0,841.89 H 595.276 V 0 H 0 Z"
         transform="translate(-173.1307,-512.59051)"
         id="path142" />
    </clipPath>
    <clipPath
       clipPathUnits="userSpaceOnUse"
       id="clipPath144">
      <path
         d="M 0,841.89 H 595.276 V 0 H 0 Z"
         transform="translate(-180.4735,-512.59051)"
         id="path144" />
    </clipPath>
    <clipPath
       clipPathUnits="userSpaceOnUse"
       id="clipPath146">
      <path
         d="M 0,841.89 H 595.276 V 0 H 0 Z"
         id="path146" />
    </clipPath>
    <clipPath
       clipPathUnits="userSpaceOnUse"
       id="clipPath148">
      <path
         d="M 0,841.89 H 595.276 V 0 H 0 Z"
         transform="translate(-195.7323,-508.79851)"
         id="path148" />
    </clipPath>
    <clipPath
       clipPathUnits="userSpaceOnUse"
       id="clipPath150">
      <path
         d="M 0,841.89 H 595.276 V 0 H 0 Z"
         transform="translate(-199.6903,-512.59051)"
         id="path150" />
    </clipPath>
    <clipPath
       clipPathUnits="userSpaceOnUse"
       id="clipPath152">
      <path
         d="M 0,841.89 H 595.276 V 0 H 0 Z"
         id="path152" />
    </clipPath>
    <clipPath
       clipPathUnits="userSpaceOnUse"
       id="clipPath154">
      <path
         d="M 0,841.89 H 595.276 V 0 H 0 Z"
         transform="translate(-211.453,-508.29322)"
         id="path154" />
    </clipPath>
    <clipPath
       clipPathUnits="userSpaceOnUse"
       id="clipPath156">
      <path
         d="M 0,841.89 H 595.276 V 0 H 0 Z"
         transform="translate(-215.67171,-503.96411)"
         id="path156" />
    </clipPath>
    <clipPath
       clipPathUnits="userSpaceOnUse"
       id="clipPath158">
      <path
         d="M 0,841.89 H 595.276 V 0 H 0 Z"
         transform="translate(-231.1507,-509.23462)"
         id="path158" />
    </clipPath>
    <clipPath
       clipPathUnits="userSpaceOnUse"
       id="clipPath160">
      <path
         d="M 0,841.89 H 595.276 V 0 H 0 Z"
         transform="translate(-232.38801,-503.96411)"
         id="path160" />
    </clipPath>
    <clipPath
       clipPathUnits="userSpaceOnUse"
       id="clipPath162">
      <path
         d="M 0,841.89 H 595.276 V 0 H 0 Z"
         transform="translate(-244.0204,-510.11302)"
         id="path162" />
    </clipPath>
    <clipPath
       clipPathUnits="userSpaceOnUse"
       id="clipPath164">
      <path
         d="M 0,841.89 H 595.276 V 0 H 0 Z"
         transform="translate(-250.8817,-510.26482)"
         id="path164" />
    </clipPath>
    <clipPath
       clipPathUnits="userSpaceOnUse"
       id="clipPath166">
      <path
         d="M 0,841.89 H 595.276 V 0 H 0 Z"
         id="path166" />
    </clipPath>
    <clipPath
       clipPathUnits="userSpaceOnUse"
       id="clipPath168">
      <path
         d="M 0,841.89 H 595.276 V 0 H 0 Z"
         id="path168" />
    </clipPath>
    <clipPath
       clipPathUnits="userSpaceOnUse"
       id="clipPath170">
      <path
         d="M 0,841.89 H 595.276 V 0 H 0 Z"
         transform="translate(-269.33721,-503.96411)"
         id="path170" />
    </clipPath>
    <clipPath
       clipPathUnits="userSpaceOnUse"
       id="clipPath172">
      <path
         d="M 0,841.89 H 595.276 V 0 H 0 Z"
         transform="translate(-280.9696,-510.11302)"
         id="path172" />
    </clipPath>
    <clipPath
       clipPathUnits="userSpaceOnUse"
       id="clipPath174">
      <path
         d="M 0,841.89 H 595.276 V 0 H 0 Z"
         id="path174" />
    </clipPath>
    <clipPath
       clipPathUnits="userSpaceOnUse"
       id="clipPath176">
      <path
         d="M 0,841.89 H 595.276 V 0 H 0 Z"
         transform="translate(-287.6683,-503.96411)"
         id="path176" />
    </clipPath>
    <clipPath
       clipPathUnits="userSpaceOnUse"
       id="clipPath178">
      <path
         d="M 0,841.89 H 595.276 V 0 H 0 Z"
         transform="translate(-302.54281,-510.26482)"
         id="path178" />
    </clipPath>
    <clipPath
       clipPathUnits="userSpaceOnUse"
       id="clipPath180">
      <path
         d="M 0,841.89 H 595.276 V 0 H 0 Z"
         id="path180" />
    </clipPath>
    <clipPath
       clipPathUnits="userSpaceOnUse"
       id="clipPath182">
      <path
         d="M 0,841.89 H 595.276 V 0 H 0 Z"
         transform="translate(-316.84461,-503.96411)"
         id="path182" />
    </clipPath>
    <clipPath
       clipPathUnits="userSpaceOnUse"
       id="clipPath184">
      <path
         d="M 0,841.89 H 595.276 V 0 H 0 Z"
         transform="translate(-331.71861,-510.26482)"
         id="path184" />
    </clipPath>
    <clipPath
       clipPathUnits="userSpaceOnUse"
       id="clipPath186">
      <path
         d="M 0,841.89 H 595.276 V 0 H 0 Z"
         transform="translate(-340.00471,-510.11302)"
         id="path186" />
    </clipPath>
    <clipPath
       clipPathUnits="userSpaceOnUse"
       id="clipPath188">
      <path
         d="M 0,841.89 H 595.276 V 0 H 0 Z"
         transform="translate(-350.07601,-508.29322)"
         id="path188" />
    </clipPath>
    <clipPath
       clipPathUnits="userSpaceOnUse"
       id="clipPath190">
      <path
         d="M 0,841.89 H 595.276 V 0 H 0 Z"
         transform="translate(-357.36021,-503.96411)"
         id="path190" />
    </clipPath>
    <clipPath
       clipPathUnits="userSpaceOnUse"
       id="clipPath192">
      <path
         d="M 0,841.89 H 595.276 V 0 H 0 Z"
         transform="translate(-371.32311,-508.29322)"
         id="path192" />
    </clipPath>
    <clipPath
       clipPathUnits="userSpaceOnUse"
       id="clipPath194">
      <path
         d="M 0,841.89 H 595.276 V 0 H 0 Z"
         transform="translate(-378.36611,-510.27121)"
         id="path194" />
    </clipPath>
    <clipPath
       clipPathUnits="userSpaceOnUse"
       id="clipPath196">
      <path
         d="M 0,841.89 H 595.276 V 0 H 0 Z"
         transform="translate(-388.16981,-509.23462)"
         id="path196" />
    </clipPath>
  </defs>
  <g
     inkscape:label="Livello 1"
     inkscape:groupmode="layer"
     id="layer1"
     transform="translate(-49.477083,-67.733333)">
    <path
       id="path1"
       d="m 0,0 c -34.007,-0.337 -81.33,-7.797 -108.394,-29.669 -21.854,-17.662 -21.086,-39.142 0.618,-56.436 23.568,-18.779 63.034,-26.778 92.609,-28.676 39.108,-2.509 97.188,3.493 128.794,28.676 21.699,17.29 22.467,38.779 0.617,56.436 C 88.905,-9.19 45.731,-1.466 13.84,-0.159 Z m 132.346,-54.119 c 0.169,-1.735 0.149,-4.963 0,-6.714 -1.684,-19.776 -25.851,-34.227 -42.189,-41.114 -48.549,-20.467 -121.68,-20.482 -170.696,-1.507 -17.786,6.886 -44.635,21.865 -45.968,43.449 -1.765,28.585 35.173,45.288 57.828,52.227 49.973,15.306 126.434,14.034 172.576,-12.341 11.911,-6.808 27.02,-19.31 28.449,-34"
       style="fill:#6d1513;fill-opacity:1;fill-rule:nonzero;stroke:none"
       transform="matrix(0.35277776,0,0,-0.35277776,94.656629,70.062884)"
       clip-path="url(#clipPath2)" />
    <path
       id="path3"
       d="M 0,0 C 0.89,0.894 3.65,4.048 3.867,5.128 4.095,6.264 3.812,6.893 2.602,6.894 0.335,6.897 -4.707,2.14 -6.271,0.399 -6.993,-0.406 -10.637,-4.469 -8.613,-5.075 -6.5,-5.707 -1.488,-1.496 0,0 m -5.189,23.892 c -3.245,-0.979 -6.587,-1.047 -9.956,-0.967 -0.952,0.022 -2.494,0.652 -3.362,0.027 L -30.831,3.033 Z M -21.907,-4.82 c 0.904,-0.892 3.581,0.724 4.477,1.278 4.5,2.784 7.447,6.769 12.51,9.304 2.668,1.336 9.574,4.498 9.8,-0.571 C 6.5,6.578 7.648,8.129 10.042,7.84 10.307,7.808 10.81,7.765 10.87,7.464 10.989,6.859 4.297,-0.553 3.339,-2.261 1.266,-5.953 4.007,-4.611 6.054,-3.299 9.813,-0.89 17.028,7.313 20.836,7.807 27.116,8.622 22.407,0.546 20.21,-1.396 l -3.227,-3.486 c 1.765,0.658 3.518,1.385 5.201,2.229 0.816,0.41 4.347,2.218 4.74,2.692 0.225,0.272 0.961,2.98 1.434,3.84 0.554,1.005 2.456,3.599 3.54,3.89 0.785,0.211 1.613,0.197 1.88,-0.653 C 34.477,4.891 29.94,0.656 28.137,-0.44 28.529,-1.303 29,-1.493 29.918,-1.54 35.139,-1.807 41.214,9.418 47.527,7.577 L 47.413,6.634 C 45.217,3.852 41.185,0.199 39.779,-2.99 c -1.725,-3.915 3.989,0.239 4.993,0.998 9.333,7.06 14.584,15.18 22.296,23.491 1.413,1.524 7.101,7.52 8.685,7.854 0.79,0.167 1.471,0.039 2.222,-0.187 C 78.118,28.972 76.663,27.28 76.421,27.008 71.365,21.316 66.148,15.873 61.449,9.857 59.35,7.169 53.08,-0.689 52.664,-3.675 c -0.035,-0.256 -0.159,-0.416 0.135,-0.613 1.476,-0.904 5.243,2.201 6.458,3.15 2.274,1.775 4.305,3.87 6.626,5.6 2.408,1.795 5.047,3.994 8.259,3.125 0.506,-0.579 -2.632,-3.61 -3.11,-4.2 -0.941,-1.161 -5.36,-6.466 -5.022,-7.636 0.109,-0.269 0.299,-0.376 0.582,-0.399 2.233,-0.183 7.874,5.616 9.828,6.956 l 0.356,-0.59 C 76.655,1.167 70.266,-4.142 69.327,-4.739 63.966,-8.152 58.685,-6.95 63.502,-0.35 l 4.046,4.824 C 63.045,1.859 55.289,-7.797 49.625,-6.506 c -2.079,0.473 -1.74,2.982 -0.932,4.427 l 2.801,4.871 C 48.277,0.224 45.096,-3.71 41.383,-5.555 38.189,-7.143 33.637,-7.508 35.51,-2.557 l 5.435,7.031 c -3.466,-1.932 -7.332,-7.59 -11.684,-6.898 -0.752,0.12 -1.73,0.539 -1.878,1.364 l -0.297,-0.009 c -3.022,-1.749 -6.129,-3.574 -9.447,-4.709 -1.113,-0.38 -6.479,-2.339 -5.391,0.585 2.189,3.066 5.178,5.749 7.013,9.061 0.678,1.223 1.566,2.781 -0.818,1.778 C 15.164,4.267 10.052,-1.753 6.634,-4.12 4.843,-5.36 0.62,-7.892 -1.244,-5.848 c -1.119,1.227 -0.271,1.809 -0.232,3.129 -2.563,-1.703 -5.814,-4.289 -9.084,-3.816 -2.418,0.349 -2.665,2.597 -2.003,4.597 0.287,0.868 0.906,1.29 1.14,2.094 -2.84,-2.517 -8.591,-8.105 -12.699,-6.354 -3.109,1.325 -1.149,5.643 -0.042,7.714 1.832,3.424 4.689,6.438 6.998,9.543 l 7.9,8.519 -30.496,-25.851 -0.667,0.355 0.139,1.509 15.925,24.227 c -9.125,-8.502 -18.044,-17.603 -29.315,-23.3 -6.229,-3.148 -17.735,-7.386 -24.254,-3.562 -5.069,2.972 -2.098,10.817 2.823,10.021 2.018,-0.326 3.112,-1.905 2.312,-3.877 -0.764,-1.881 -5.881,-4.236 -1.104,-5.947 3.953,-1.416 10.057,0.354 13.89,1.788 15.25,5.703 26.736,17.906 38.286,28.834 -2.392,0.454 -4.879,0.881 -7.311,1.076 -6.916,0.554 -15.558,0.737 -21.668,-3.014 -7.08,-4.347 -8.001,-14.314 1.178,-16.409 0.594,-0.583 -1.032,-0.509 -1.318,-0.477 -6.184,0.693 -8.552,8.588 -6.081,13.758 5.546,11.602 25.977,7.997 36.027,6.137 0.81,0.458 4.207,4.073 5.133,2.612 0.668,-1.054 -2.019,-3.006 -1.644,-3.323 5.7,-0.701 15.677,-0.21 19.277,5.05 0.183,0.268 0.84,2.34 1.217,1.666 C 3.838,29.505 2.117,27.199 1.275,26.179 -5.443,18.034 -17.013,8.293 -21.287,-1.362 c -0.34,-0.768 -1.282,-2.804 -0.62,-3.458"
       style="fill:#6d1513;fill-opacity:1;fill-rule:nonzero;stroke:none"
       transform="matrix(0.35277776,0,0,-0.35277776,81.179212,89.483371)"
       clip-path="url(#clipPath4)" />
    <path
       id="path5"
       d="m 0,0 c -1.725,-1.732 -4.753,-4.939 -4.153,-7.608 0.393,-1.749 2.563,-1.404 3.832,-1.06 4.187,1.133 9.222,6.802 11.927,10.127 l 8.392,11.623 C 13.332,9.001 5.567,5.589 0,0 m 18.803,35.144 c 7.942,-2.253 16.897,-0.042 23.562,4.598 2.632,1.832 8.535,6.939 6.82,10.571 -2.04,4.321 -12.152,0.967 -15.212,-0.976 -1.016,-0.645 -0.187,-0.886 0.213,-1.802 0.659,-1.511 1.731,-3.923 0.793,-5.439 -0.485,1.438 -0.753,2.887 -1.517,4.235 -0.299,0.528 -1.003,1.874 -1.724,1.669 -0.356,-0.102 -2.95,-2.14 -3.462,-2.555 -3.543,-2.87 -7.037,-6.441 -9.473,-10.301 m 1.144,17.915 c -8.724,-0.995 -12.988,-9.936 -5.544,-15.74 0.401,-0.072 4.185,4.045 4.875,4.66 3.401,3.027 7.312,5.436 11.264,7.669 -2.703,2.749 -6.807,3.842 -10.595,3.411 M 36.06,30.105 35.788,28.818 27.671,17.879 c 5.625,2.511 9.981,7.045 14.745,10.782 2.433,1.908 6.591,5.561 9.695,3.725 -1.377,-2.195 -8.153,-8.772 -8.161,-11.036 -0.008,-2.15 3.887,0.809 4.651,1.364 4.86,3.534 7.579,7.4 13.762,9.489 1.465,0.495 3.706,1.298 5.087,0.421 -3.803,-1.957 -9.524,-6.65 -11.064,-10.745 -2.168,-5.767 6.423,-0.038 7.716,1.871 0.549,0.812 0.519,1.603 0.913,2.443 0.769,1.64 2.06,2.689 3.52,3.672 l 0.243,3.119 c 5.006,-2.466 0.193,-7.579 -2.282,-10.069 3.161,0.079 5.416,2.805 7.791,4.548 0.867,-0.522 -0.606,-1.595 -1.077,-2.036 -1.414,-1.324 -4.18,-3.371 -6.147,-3.462 -0.576,-0.027 -1.075,0.306 -1.583,0.187 -0.487,-0.114 -2.602,-1.757 -3.377,-2.157 -3.705,-1.912 -10.372,-3.388 -9.638,2.93 l 1.45,3.344 c -3.184,-2.93 -8.181,-8.41 -12.929,-7.658 -0.634,0.101 -1.264,0.542 -1.464,1.171 -0.917,2.895 3.843,7.463 5.643,9.486 L 44.81,29.385 C 41.232,26.574 37.941,23.424 34.217,20.799 31.911,19.174 28.098,17.447 26.224,15.848 24.689,14.538 22.288,10.415 20.815,8.551 15.857,2.278 8.381,-6.365 0.823,-9.333 c -6.78,-2.663 -9.757,1.364 -5.263,6.944 6.215,7.717 17.714,11.891 25.754,17.394 l 5.875,7.791 -0.117,0.355 c -8.738,-8.805 -23.635,-5.989 -16.064,8.878 0.824,1.618 1.998,3.048 3.001,4.547 -1.968,1.07 -3.597,3.315 -4.077,5.518 L 8.242,40.312 5.619,39.32 c -1.688,2.898 1.224,5.199 4.074,4.215 -0.496,9.983 12.326,13.094 19.729,9.065 1.073,-0.584 1.905,-1.478 2.931,-2.12 3.053,1.05 6.348,2.515 9.581,2.881 10.566,1.196 10.896,-6.55 4.434,-12.588 -6.663,-6.226 -17.132,-8.341 -25.942,-7.004 -1.012,0.153 -2.016,1.026 -2.69,0.163 -2.14,-2.739 -6.325,-11.997 -1.784,-13.991 3.671,-1.613 8.826,2.183 11.482,4.527 2.496,2.203 4.9,6.345 8.626,5.637"
       style="fill:#6d1513;fill-opacity:1;fill-rule:nonzero;stroke:none"
       transform="matrix(0.35277776,0,0,-0.35277776,106.36627,98.357424)"
       clip-path="url(#clipPath6)" />
    <path
       id="path7"
       d="m 0,0 c -0.474,-0.069 -0.808,0.126 -1.186,0.37 -1.076,0.696 -5.213,4.689 -5.472,5.792 -0.361,1.534 0.376,2.943 1.988,2.232 z"
       style="fill:#6d1513;fill-opacity:1;fill-rule:nonzero;stroke:none"
       transform="matrix(0.35277776,0,0,-0.35277776,131.76895,84.690989)"
       clip-path="url(#clipPath8)" />
    <path
       id="path9"
       d="M 0,0 C -0.477,-0.49 -2.566,-1.694 -3.198,-1.73 -3.719,-1.76 -3.951,-0.821 -3.977,-0.416 -4.19,2.928 0.655,3.658 0.993,1.919 0.945,1.265 0.449,0.462 0,0"
       style="fill:#6d1513;fill-opacity:1;fill-rule:nonzero;stroke:none"
       transform="matrix(0.35277776,0,0,-0.35277776,126.9196,83.899673)"
       clip-path="url(#clipPath10)" />
    <path
       id="path11"
       d="M 0,0 C 0.668,0.612 3.39,1.312 3.885,0.315 4.889,-1.261 0.806,-3.953 -0.168,-3.73 -1.239,-3.484 -0.696,-0.638 0,0"
       style="fill:#6d1513;fill-opacity:1;fill-rule:nonzero;stroke:none"
       transform="matrix(0.35277776,0,0,-0.35277776,99.074604,83.195106)"
       clip-path="url(#clipPath12)" />
  </g>
</svg>
